<svg xmlns="http://www.w3.org/2000/svg" xmlns:xlink="http://www.w3.org/1999/xlink" width="400" zoomAndPan="magnify" viewBox="0 0 300 299.999988" height="400" preserveAspectRatio="xMidYMid meet" version="1.0"><defs><clipPath id="d71a2ab26c"><path d="M 98.636719 0 L 201.34375 0 L 201.34375 59.996094 L 98.636719 59.996094 Z M 98.636719 0 " clip-rule="nonzero"/></clipPath><clipPath id="d3887bc3d8"><path d="M 98.636719 240 L 201.34375 240 L 201.34375 300 L 98.636719 300 Z M 98.636719 240 " clip-rule="nonzero"/></clipPath><clipPath id="d9ce831256"><path d="M 248.636719 90 L 300 90 L 300 209.996094 L 248.636719 209.996094 Z M 248.636719 90 " clip-rule="nonzero"/></clipPath><clipPath id="eda91740ed"><path d="M 0 90 L 51.335938 90 L 51.335938 209.996094 L 0 209.996094 Z M 0 90 " clip-rule="nonzero"/></clipPath></defs><g clip-path="url(#d71a2ab26c)"><path fill="#f08897" d="M 200.273438 -28.96875 C 198.300781 -20.824219 195.285156 -1.046875 193.851562 8.910156 C 192.171875 20.550781 186.074219 41.917969 167.738281 53.050781 C 148.011719 65.023438 128.847656 61.925781 109.804688 40.546875 C 90.761719 19.175781 98.914062 -3.613281 113.152344 -15.167969 C 127.394531 -26.722656 152.167969 -42.316406 166.394531 -51.585938 C 177.023438 -58.511719 186.160156 -58.808594 191.984375 -56.464844 L 191.890625 -56.542969 C 191.890625 -56.542969 192.226562 -60.167969 193.257812 -59.992188 C 194.289062 -59.816406 199.75 -56.976562 199.574219 -55.945312 C 199.449219 -55.195312 197.691406 -53.898438 196.746094 -53.246094 C 200.328125 -49.132812 202.886719 -39.746094 200.273438 -28.96875 " fill-opacity="1" fill-rule="nonzero"/></g><path fill="#324370" d="M 162.011719 -11.867188 C 169.84375 -6.710938 173.496094 12.65625 166.796875 23.347656 C 160.101562 34.039062 149.542969 41.503906 139.503906 39.609375 C 129.46875 37.714844 122.4375 30.355469 118.871094 17.308594 C 115.304688 4.265625 124.046875 -4.585938 131.378906 -8.191406 C 138.714844 -11.796875 153.597656 -17.40625 162.011719 -11.867188 " fill-opacity="1" fill-rule="nonzero"/><g clip-path="url(#d3887bc3d8)"><path fill="#f08897" d="M 200.273438 271.03125 C 198.300781 279.175781 195.285156 298.953125 193.851562 308.910156 C 192.171875 320.550781 186.074219 341.917969 167.738281 353.050781 C 148.011719 365.023438 128.847656 361.925781 109.804688 340.546875 C 90.761719 319.175781 98.914062 296.386719 113.152344 284.832031 C 127.394531 273.277344 152.167969 257.683594 166.394531 248.414062 C 177.023438 241.488281 186.160156 241.191406 191.984375 243.535156 L 191.890625 243.457031 C 191.890625 243.457031 192.226562 239.832031 193.257812 240.007812 C 194.289062 240.183594 199.75 243.023438 199.574219 244.054688 C 199.449219 244.804688 197.691406 246.101562 196.746094 246.753906 C 200.328125 250.867188 202.886719 260.253906 200.273438 271.03125 " fill-opacity="1" fill-rule="nonzero"/></g><path fill="#324370" d="M 162.011719 288.132812 C 169.84375 293.289062 173.496094 312.65625 166.796875 323.347656 C 160.101562 334.039062 149.542969 341.503906 139.503906 339.609375 C 129.46875 337.714844 122.4375 330.355469 118.871094 317.308594 C 115.304688 304.265625 124.046875 295.414062 131.378906 291.808594 C 138.714844 288.203125 153.597656 282.59375 162.011719 288.132812 " fill-opacity="1" fill-rule="nonzero"/><g clip-path="url(#d9ce831256)"><path fill="#f08897" d="M 350.273438 121.03125 C 348.300781 129.175781 345.285156 148.953125 343.847656 158.910156 C 342.171875 170.550781 336.074219 191.917969 317.738281 203.050781 C 298.011719 215.023438 278.847656 211.925781 259.804688 190.546875 C 240.761719 169.175781 248.914062 146.386719 263.152344 134.832031 C 277.394531 123.277344 302.167969 107.683594 316.394531 98.414062 C 327.023438 91.488281 336.160156 91.191406 341.984375 93.535156 L 341.890625 93.457031 C 341.890625 93.457031 342.226562 89.832031 343.257812 90.007812 C 344.289062 90.183594 349.75 93.023438 349.574219 94.054688 C 349.449219 94.804688 347.691406 96.101562 346.746094 96.753906 C 350.328125 100.867188 352.886719 110.253906 350.273438 121.03125 " fill-opacity="1" fill-rule="nonzero"/></g><path fill="#324370" d="M 312.011719 138.132812 C 319.84375 143.289062 323.496094 162.65625 316.796875 173.347656 C 310.101562 184.039062 299.542969 191.503906 289.503906 189.609375 C 279.46875 187.714844 272.4375 180.355469 268.871094 167.308594 C 265.304688 154.265625 274.046875 145.414062 281.378906 141.808594 C 288.714844 138.203125 303.597656 132.59375 312.011719 138.132812 " fill-opacity="1" fill-rule="nonzero"/><g clip-path="url(#eda91740ed)"><path fill="#f08897" d="M 50.269531 121.03125 C 48.292969 129.175781 45.28125 148.953125 43.84375 158.910156 C 42.164062 170.550781 36.070312 191.917969 17.730469 203.050781 C -1.992188 215.023438 -21.160156 211.925781 -40.203125 190.546875 C -59.242188 169.175781 -51.09375 146.386719 -36.851562 134.832031 C -22.613281 123.277344 2.164062 107.683594 16.386719 98.414062 C 27.019531 91.488281 36.152344 91.191406 41.980469 93.535156 L 41.886719 93.457031 C 41.886719 93.457031 42.21875 89.832031 43.25 90.007812 C 44.28125 90.183594 49.746094 93.023438 49.570312 94.054688 C 49.441406 94.804688 47.6875 96.101562 46.738281 96.753906 C 50.320312 100.867188 52.882812 110.253906 50.269531 121.03125 " fill-opacity="1" fill-rule="nonzero"/></g><path fill="#324370" d="M 12.007812 138.132812 C 19.835938 143.289062 23.488281 162.65625 16.792969 173.347656 C 10.09375 184.039062 -0.464844 191.503906 -10.5 189.609375 C -20.539062 187.714844 -27.566406 180.355469 -31.132812 167.308594 C -34.699219 154.265625 -25.960938 145.414062 -18.625 141.808594 C -11.292969 138.203125 3.59375 132.59375 12.007812 138.132812 " fill-opacity="1" fill-rule="nonzero"/></svg>