<svg xmlns="http://www.w3.org/2000/svg" xmlns:xlink="http://www.w3.org/1999/xlink" width="400" zoomAndPan="magnify" viewBox="0 0 300 299.999988" height="400" preserveAspectRatio="xMidYMid meet" version="1.0"><defs><clipPath id="71cceaee6c"><path d="M 90 0 L 209.992188 0 L 209.992188 51.789062 L 90 51.789062 Z M 90 0 " clip-rule="nonzero"/></clipPath><clipPath id="ffe456fc74"><path d="M 90 248.304688 L 209.992188 248.304688 L 209.992188 300 L 90 300 Z M 90 248.304688 " clip-rule="nonzero"/></clipPath><clipPath id="7efd03c8b0"><path d="M 240 98.304688 L 300 98.304688 L 300 201.78125 L 240 201.78125 Z M 240 98.304688 " clip-rule="nonzero"/></clipPath><clipPath id="686bf4d28a"><path d="M 0 104.359375 L 59.992188 104.359375 L 59.992188 207.832031 L 0 207.832031 Z M 0 104.359375 " clip-rule="nonzero"/></clipPath></defs><g clip-path="url(#71cceaee6c)"><path fill="#e9963a" d="M 168.308594 51.636719 C 133.246094 47.980469 127.988281 42.597656 114.210938 38.808594 C 100.429688 35.015625 85.644531 19.96875 91.199219 -1.273438 C 96.75 -22.515625 113.535156 -35.847656 134.148438 -29.910156 C 139.5 -28.371094 146.757812 -26.835938 154.765625 -25.015625 C 151.414062 -27.078125 147.671875 -30.285156 147.511719 -35.84375 C 147.257812 -44.816406 149.421875 -46.980469 151.914062 -51.65625 C 151.914062 -51.65625 152.460938 -47.636719 155.914062 -45.125 C 159.367188 -42.609375 166.070312 -34.410156 162.878906 -27.527344 C 162.191406 -26.039062 161.859375 -24.722656 161.757812 -23.570312 C 163.914062 -24.792969 166.296875 -27.21875 167.601562 -32.027344 C 170.375 -42.25 184.910156 -44.976562 190.855469 -44.550781 C 196.800781 -44.128906 200.996094 -47.929688 200.996094 -47.929688 C 199.460938 -40.691406 199.828125 -36.433594 191.492188 -27.078125 C 183.328125 -17.921875 170.890625 -23.078125 166.644531 -23.378906 C 165.550781 -23.457031 164.449219 -23.285156 163.417969 -22.988281 C 183.820312 -18.140625 200.0625 -14.101562 207.148438 0.515625 C 218.0625 23.039062 195.933594 54.515625 168.308594 51.636719 " fill-opacity="1" fill-rule="nonzero"/></g><path stroke-linecap="butt" transform="matrix(0.0242817, 0, 0, -0.0243009, 89.999999, 51.820426)" fill="none" stroke-linejoin="miter" d="M 2555.458396 2888.912068 C 2555.458396 2888.912068 2578.30228 2778.15883 2679.49103 2866.890017 M 2868.516119 2915.756467 C 2868.516119 2915.756467 2891.360003 2805.003229 2992.548753 2893.734415 M 1388.489885 2925.883396 C 1388.489885 2925.883396 1411.333768 2815.130158 1512.522518 2903.700599 M 1224.40002 3083.091911 C 1224.40002 3083.091911 1247.404775 2972.338673 1348.432653 3060.909114 M 1600.358858 3037.440358 C 1600.358858 3037.440358 1623.202741 2926.68712 1724.391491 3015.418307 M 2774.084011 2679.300715 C 2774.084011 2679.300715 2797.088766 2568.547477 2898.277517 2657.278664 M 3175.782436 2778.48032 C 3175.782436 2778.48032 3198.787191 2667.727082 3299.975941 2756.458269 M 3755.084008 1117.824731 C 3755.084008 1117.824731 3778.088764 1007.071493 3879.277514 1095.802679 M 3809.298013 702.781392 C 3809.298013 702.781392 3881.047111 626.106073 3954.083188 677.062208 M 3389.74275 862.883315 C 3389.74275 862.883315 3440.739306 789.744384 3534.527925 837.003386 M 3182.378205 537.053397 C 3182.378205 537.053397 3209.083026 446.875507 3327.16338 511.173468 M 3520.692897 519.532203 C 3520.692897 519.532203 3547.236846 429.354313 3665.478072 493.652274 M 2932.865086 453.305303 C 2811.084667 368.431994 2788.079911 479.185232 2788.079911 479.185232 " stroke="#324370" stroke-width="21.007" stroke-opacity="1" stroke-miterlimit="10"/><g clip-path="url(#ffe456fc74)"><path fill="#e9963a" d="M 168.308594 351.597656 C 133.246094 347.941406 127.988281 342.558594 114.210938 338.765625 C 100.429688 334.972656 85.644531 319.925781 91.199219 298.683594 C 96.75 277.445312 113.535156 264.113281 134.148438 270.046875 C 139.5 271.589844 146.757812 273.125 154.765625 274.945312 C 151.414062 272.882812 147.671875 269.675781 147.511719 264.113281 C 147.257812 255.140625 149.421875 252.980469 151.914062 248.304688 C 151.914062 248.304688 152.460938 252.324219 155.914062 254.835938 C 159.367188 257.347656 166.070312 265.550781 162.878906 272.429688 C 162.191406 273.917969 161.859375 275.238281 161.757812 276.386719 C 163.914062 275.164062 166.296875 272.738281 167.601562 267.933594 C 170.375 257.707031 184.910156 254.984375 190.855469 255.40625 C 196.800781 255.832031 200.996094 252.027344 200.996094 252.027344 C 199.460938 259.265625 199.828125 263.527344 191.492188 272.878906 C 183.328125 282.039062 170.890625 276.882812 166.644531 276.578125 C 165.550781 276.5 164.449219 276.671875 163.417969 276.96875 C 183.820312 281.820312 200.0625 285.859375 207.148438 300.476562 C 218.0625 323 195.933594 354.472656 168.308594 351.597656 " fill-opacity="1" fill-rule="nonzero"/></g><path stroke-linecap="butt" transform="matrix(0.0242817, 0, 0, -0.0243009, 89.999999, 351.779971)" fill="none" stroke-linejoin="miter" d="M 2555.458396 2888.85477 C 2555.458396 2888.85477 2578.30228 2778.101532 2679.49103 2866.832719 M 2868.516119 2915.859914 C 2868.516119 2915.859914 2891.360003 2805.106676 2992.548753 2893.837862 M 1388.489885 2925.826098 C 1388.489885 2925.826098 1411.333768 2815.07286 1512.522518 2903.804046 M 1224.40002 3083.034613 C 1224.40002 3083.034613 1247.404775 2972.281375 1348.432653 3061.012561 M 1600.358858 3037.543805 C 1600.358858 3037.543805 1623.202741 2926.790567 1724.391491 3015.361009 M 2774.084011 2679.243417 C 2774.084011 2679.243417 2797.088766 2568.490179 2898.277517 2657.221365 M 3175.782436 2778.423022 C 3175.782436 2778.423022 3198.787191 2667.669784 3299.975941 2756.40097 M 3755.084008 1117.928177 C 3755.084008 1117.928177 3778.088764 1007.014195 3879.277514 1095.745381 M 3809.298013 702.884839 C 3809.298013 702.884839 3881.047111 626.048775 3954.083188 677.004909 M 3389.74275 862.826017 C 3389.74275 862.826017 3440.739306 789.687086 3534.527925 837.106833 M 3182.378205 536.996099 C 3182.378205 536.996099 3209.083026 446.818209 3327.16338 511.276915 M 3520.692897 519.474905 C 3520.692897 519.474905 3547.236846 429.457759 3665.478072 493.75572 M 2932.865086 453.40875 C 2811.084667 368.374696 2788.079911 479.127934 2788.079911 479.127934 " stroke="#324370" stroke-width="21.007" stroke-opacity="1" stroke-miterlimit="10"/><g clip-path="url(#7efd03c8b0)"><path fill="#e9963a" d="M 318.308594 201.597656 C 283.246094 197.941406 277.988281 192.558594 264.210938 188.765625 C 250.429688 184.972656 235.644531 169.925781 241.199219 148.683594 C 246.75 127.445312 263.535156 114.113281 284.148438 120.046875 C 289.5 121.589844 296.757812 123.125 304.765625 124.945312 C 301.414062 122.882812 297.671875 119.675781 297.511719 114.113281 C 297.257812 105.140625 299.421875 102.980469 301.914062 98.304688 C 301.914062 98.304688 302.460938 102.324219 305.914062 104.835938 C 309.367188 107.347656 316.070312 115.550781 312.878906 122.429688 C 312.191406 123.917969 311.859375 125.238281 311.757812 126.386719 C 313.914062 125.164062 316.296875 122.738281 317.601562 117.933594 C 320.375 107.707031 334.910156 104.984375 340.855469 105.40625 C 346.800781 105.832031 350.996094 102.027344 350.996094 102.027344 C 349.460938 109.265625 349.828125 113.527344 341.492188 122.878906 C 333.328125 132.039062 320.890625 126.882812 316.644531 126.578125 C 315.550781 126.5 314.449219 126.671875 313.417969 126.96875 C 333.820312 131.820312 350.0625 135.859375 357.148438 150.476562 C 368.0625 173 345.933594 204.472656 318.308594 201.597656 " fill-opacity="1" fill-rule="nonzero"/></g><path stroke-linecap="butt" transform="matrix(0.0242817, 0, 0, -0.0243009, 239.999986, 201.779998)" fill="none" stroke-linejoin="miter" d="M 2555.458901 2888.855867 C 2555.458901 2888.855867 2578.302784 2778.102629 2679.491534 2866.833815 M 2868.516624 2915.861011 C 2868.516624 2915.861011 2891.360507 2805.107773 2992.549257 2893.838959 M 1388.490389 2925.827194 C 1388.490389 2925.827194 1411.334273 2815.073957 1512.523023 2903.805143 M 1224.400524 3083.035709 C 1224.400524 3083.035709 1247.40528 2972.282471 1348.433158 3061.013658 M 1600.359362 3037.544902 C 1600.359362 3037.544902 1623.203246 2926.791664 1724.391996 3015.362105 M 2774.084515 2679.244514 C 2774.084515 2679.244514 2797.089271 2568.491276 2898.278021 2657.222462 M 3175.78294 2778.424119 C 3175.78294 2778.424119 3198.787696 2667.670881 3299.976446 2756.402067 M 3755.084513 1117.929274 C 3755.084513 1117.929274 3778.089269 1007.015291 3879.278019 1095.746478 M 3809.298517 702.885935 C 3809.298517 702.885935 3881.047615 626.049872 3954.083693 677.006006 M 3389.743254 862.827114 C 3389.743254 862.827114 3440.739811 789.688183 3534.52843 837.107929 M 3182.378709 536.997196 C 3182.378709 536.997196 3209.08353 446.819306 3327.163884 511.278011 M 3520.693402 519.476002 C 3520.693402 519.476002 3547.23735 429.458856 3665.478577 493.756817 M 2932.865591 453.409847 C 2811.085171 368.375793 2788.080416 479.129031 2788.080416 479.129031 " stroke="#324370" stroke-width="21.007" stroke-opacity="1" stroke-miterlimit="10"/><g clip-path="url(#686bf4d28a)"><path fill="#e9963a" d="M 18.308594 207.648438 C -16.753906 203.996094 -22.011719 198.613281 -35.789062 194.820312 C -49.570312 191.027344 -64.355469 175.980469 -58.800781 154.738281 C -53.25 133.496094 -36.464844 120.164062 -15.851562 126.101562 C -10.5 127.644531 -3.242188 129.179688 4.765625 131 C 1.414062 128.9375 -2.328125 125.730469 -2.488281 120.167969 C -2.742188 111.195312 -0.578125 109.03125 1.914062 104.359375 C 1.914062 104.359375 2.460938 108.378906 5.914062 110.890625 C 9.367188 113.402344 16.070312 121.601562 12.878906 128.484375 C 12.191406 129.972656 11.859375 131.292969 11.757812 132.441406 C 13.914062 131.21875 16.296875 128.792969 17.601562 123.988281 C 20.375 113.761719 34.910156 111.039062 40.855469 111.460938 C 46.800781 111.882812 50.996094 108.082031 50.996094 108.082031 C 49.460938 115.320312 49.828125 119.578125 41.492188 128.933594 C 33.328125 138.09375 20.890625 132.933594 16.644531 132.632812 C 15.550781 132.554688 14.449219 132.726562 13.417969 133.023438 C 33.820312 137.875 50.0625 141.910156 57.148438 156.527344 C 68.0625 179.054688 45.933594 210.527344 18.308594 207.648438 " fill-opacity="1" fill-rule="nonzero"/></g><path stroke-linecap="butt" transform="matrix(0.0242817, 0, 0, -0.0243009, -59.999989, 207.833582)" fill="none" stroke-linejoin="miter" d="M 2555.457892 2888.81047 C 2555.457892 2888.81047 2578.301775 2778.217977 2679.490525 2866.788418 M 2868.515615 2915.815613 C 2868.515615 2915.815613 2891.359498 2805.062375 2992.548248 2893.793562 M 1388.48938 2925.781797 C 1388.48938 2925.781797 1411.333264 2815.028559 1512.522014 2903.759746 M 1224.399515 3082.990312 C 1224.399515 3082.990312 1247.404271 2972.237074 1348.432149 3060.96826 M 1600.358353 3037.499505 C 1600.358353 3037.499505 1623.202237 2926.746267 1724.390987 3015.477453 M 2774.083506 2679.199117 C 2774.083506 2679.199117 2797.088262 2568.445879 2898.277012 2657.177065 M 3175.781931 2778.539466 C 3175.781931 2778.539466 3198.786687 2667.786228 3299.975437 2756.35667 M 3755.083504 1117.883877 C 3755.083504 1117.883877 3778.08826 1007.130639 3879.27701 1095.70108 M 3809.297508 702.840538 C 3809.297508 702.840538 3881.046606 626.004475 3954.082684 677.121354 M 3389.742245 862.781716 C 3389.742245 862.781716 3440.738802 789.803531 3534.527421 837.062532 M 3182.3777 536.951799 C 3182.3777 536.951799 3209.082521 446.934653 3327.162875 511.232614 M 3520.692393 519.430604 C 3520.692393 519.430604 3547.236341 429.413459 3665.477568 493.71142 M 2932.864582 453.364449 C 2811.084162 368.330396 2788.079407 479.083634 2788.079407 479.083634 " stroke="#324370" stroke-width="21.007" stroke-opacity="1" stroke-miterlimit="10"/></svg>